<svg width="23" height="13" viewBox="0 0 23 13" fill="none" xmlns="http://www.w3.org/2000/svg">
<path d="M1.128 11.384C1.112 11.384 1.072 11.328 1.008 11.216C0.928 11.12 0.888 11.008 0.888 10.88C0.888 10.816 0.896 10.752 0.912 10.688C0.928 10.624 0.976 10.592 1.056 10.592C1.152 10.592 1.264 10.624 1.392 10.688L1.464 10.712C1.928 10.984 2.504 11.176 3.192 11.288C3.88 11.4 4.504 11.488 5.064 11.552C5.544 11.616 6.04 11.576 6.552 11.432C7.08 11.304 7.592 11.12 8.088 10.88C8.6 10.624 9.08 10.336 9.528 10.016C9.976 9.68 10.368 9.352 10.704 9.032C11.04 8.696 11.296 8.384 11.472 8.096C11.664 7.792 11.744 7.544 11.712 7.352C11.472 7.144 11.12 6.984 10.656 6.872C10.192 6.76 9.712 6.68 9.216 6.632C8.72 6.584 8.248 6.552 7.8 6.536C7.368 6.52 7.056 6.496 6.864 6.464H6.504C6.296 6.704 6.064 6.968 5.808 7.256C5.568 7.528 5.328 7.792 5.088 8.048C4.864 8.288 4.656 8.512 4.464 8.72C4.272 8.928 4.136 9.08 4.056 9.176L3.576 9.704C3.512 9.768 3.464 9.8 3.432 9.8C3.384 9.8 3.36 9.784 3.36 9.752C3.36 9.72 3.368 9.696 3.384 9.68L3.504 9.488C3.552 9.408 3.648 9.272 3.792 9.08C3.936 8.888 4.104 8.656 4.296 8.384C4.488 8.112 4.704 7.816 4.944 7.496C5.184 7.16 5.432 6.816 5.688 6.464H5.328H3.864H3.792C3.776 6.464 3.768 6.456 3.768 6.44H3.744C3.712 6.44 3.672 6.44 3.624 6.44C3.592 6.44 3.576 6.416 3.576 6.368C3.576 6.32 3.608 6.296 3.672 6.296L5.928 6.128C6.184 5.792 6.448 5.432 6.72 5.048C7.008 4.648 7.28 4.264 7.536 3.896C7.808 3.512 8.056 3.168 8.28 2.864C8.504 2.56 8.68 2.32 8.808 2.144C8.568 2.064 8.304 2.016 8.016 2C7.728 1.968 7.472 1.952 7.248 1.952C6.864 1.952 6.552 1.992 6.312 2.072C6.088 2.152 5.96 2.192 5.928 2.192H5.904C5.904 2.192 5.864 2.192 5.784 2.192C5.72 2.176 5.64 2.16 5.544 2.144C5.464 2.112 5.392 2.072 5.328 2.024C5.264 1.96 5.232 1.888 5.232 1.808C5.232 1.792 5.256 1.752 5.304 1.688C5.368 1.624 5.472 1.552 5.616 1.472C5.776 1.392 5.992 1.32 6.264 1.256C6.552 1.192 6.912 1.16 7.344 1.16C7.904 1.16 8.512 1.24 9.168 1.4C9.824 1.56 10.432 1.784 10.992 2.072C11.152 2.168 11.36 2.296 11.616 2.456C11.872 2.616 12.112 2.808 12.336 3.032C12.56 3.256 12.752 3.512 12.912 3.8C13.088 4.072 13.176 4.36 13.176 4.664C13.144 5.016 13.024 5.288 12.816 5.48C12.624 5.672 12.368 5.824 12.048 5.936C11.744 6.032 11.392 6.104 10.992 6.152C10.608 6.2 10.2 6.256 9.768 6.32C10.088 6.32 10.432 6.352 10.8 6.416C11.184 6.464 11.504 6.568 11.76 6.728C12.032 6.872 12.192 7.08 12.24 7.352C12.288 7.624 12.152 7.968 11.832 8.384C11.4 8.944 10.928 9.472 10.416 9.968C9.904 10.448 9.36 10.864 8.784 11.216C8.224 11.568 7.632 11.84 7.008 12.032C6.384 12.24 5.744 12.344 5.088 12.344C4.48 12.344 3.904 12.272 3.36 12.128C2.816 12 2.216 11.824 1.56 11.6L1.464 11.552C1.336 11.488 1.224 11.44 1.128 11.408V11.384ZM7.44 6.008C7.84 5.976 8.296 5.936 8.808 5.888C9.32 5.84 9.816 5.776 10.296 5.696C10.776 5.616 11.208 5.52 11.592 5.408C11.976 5.28 12.256 5.128 12.432 4.952L12.456 4.928V4.88V4.856C12.456 4.44 12.216 3.992 11.736 3.512C11.256 3.032 10.544 2.648 9.6 2.36C9.232 3 8.808 3.624 8.328 4.232C7.848 4.824 7.352 5.432 6.84 6.056L7.44 6.008ZM12.3439 11.432C12.0879 11.16 11.9599 10.824 11.9599 10.424C11.9599 9.896 12.2079 9.296 12.7039 8.624C13.1999 7.936 13.8159 7.24 14.5519 6.536C15.2879 5.816 16.0879 5.12 16.9519 4.448C17.8159 3.776 18.6079 3.184 19.3279 2.672C20.0639 2.144 20.6719 1.728 21.1519 1.424C21.6319 1.12 21.8559 0.976 21.8239 0.991999H21.8479H21.9199C22.0319 0.991999 22.1759 1.016 22.3519 1.064C22.5279 1.112 22.6079 1.208 22.5919 1.352C22.5119 1.448 22.3439 1.672 22.0879 2.024C21.8319 2.36 21.5599 2.728 21.2719 3.128C20.9999 3.512 20.7519 3.88 20.5279 4.232C20.3039 4.568 20.1919 4.792 20.1919 4.904H20.1679C20.1519 4.92 20.1279 4.928 20.0959 4.928H19.9279C19.8479 4.928 19.7439 4.928 19.6159 4.928C19.5039 4.912 19.4479 4.848 19.4479 4.736V4.712C19.4479 4.568 19.4959 4.4 19.5919 4.208C19.7039 4 19.8319 3.8 19.9759 3.608C20.1199 3.4 20.2719 3.208 20.4319 3.032C20.5919 2.856 20.7199 2.72 20.8159 2.624L20.7919 2.648C20.5519 2.84 20.1599 3.128 19.6159 3.512C19.0719 3.88 18.4639 4.312 17.7919 4.808C17.1199 5.288 16.4319 5.816 15.7279 6.392C15.0399 6.952 14.4239 7.504 13.8799 8.048C13.7359 8.192 13.5759 8.368 13.3999 8.576C13.2239 8.768 13.0639 8.976 12.9199 9.2C12.7759 9.424 12.6559 9.656 12.5599 9.896C12.4639 10.12 12.4159 10.336 12.4159 10.544C12.4159 10.832 12.5119 11.064 12.7039 11.24C12.9119 11.432 13.1759 11.608 13.4959 11.768C13.8319 11.864 14.2319 11.904 14.6959 11.888C15.1759 11.888 15.6479 11.832 16.1119 11.72C16.5919 11.624 17.0319 11.464 17.4319 11.24C17.8319 11.016 18.1199 10.72 18.2959 10.352C17.8959 10.288 17.4879 10.216 17.0719 10.136C16.6559 10.056 16.2399 9.952 15.8239 9.824L15.5359 9.752C15.4239 9.704 15.3679 9.664 15.3679 9.632C15.3679 9.616 15.3839 9.592 15.4159 9.56H15.5359C15.8719 9.544 16.2879 9.544 16.7839 9.56C17.2799 9.56 17.7599 9.568 18.2239 9.584C18.7039 9.6 19.1199 9.616 19.4719 9.632C19.8239 9.648 20.0399 9.664 20.1199 9.68L20.1679 9.704C20.1679 9.72 20.1759 9.768 20.1919 9.848C20.2239 9.912 20.2399 10.016 20.2399 10.16C20.2399 10.336 20.1919 10.432 20.0959 10.448H20.0719C19.9919 10.448 19.8799 10.448 19.7359 10.448C19.6079 10.448 19.3839 10.432 19.0639 10.4C19.0479 10.416 19.0399 10.44 19.0399 10.472C18.8799 10.792 18.6559 11.072 18.3679 11.312C18.0959 11.552 17.7839 11.744 17.4319 11.888C17.0799 12.048 16.6959 12.16 16.2799 12.224C15.8639 12.304 15.4319 12.344 14.9839 12.344C14.9039 12.344 14.7599 12.336 14.5519 12.32C14.3439 12.304 14.1039 12.264 13.8319 12.2C13.5759 12.136 13.3119 12.04 13.0399 11.912C12.7839 11.8 12.5519 11.64 12.3439 11.432Z" fill="black"/>
</svg>
