<svg width="27" height="27" viewBox="0 0 27 27" fill="none" xmlns="http://www.w3.org/2000/svg">
<path d="M20.1456 4.73957C19.8409 4.73957 19.5432 4.83007 19.2899 4.99964C19.0366 5.16921 18.8392 5.41022 18.7226 5.6922C18.606 5.97418 18.5755 6.28447 18.6349 6.58382C18.6944 6.88316 18.8411 7.15813 19.0565 7.37395C19.2719 7.58977 19.5463 7.73675 19.8451 7.79629C20.1439 7.85584 20.4536 7.82527 20.735 7.70847C21.0164 7.59167 21.257 7.39388 21.4262 7.1401C21.5955 6.88633 21.6858 6.58797 21.6858 6.28275C21.6858 5.87348 21.5235 5.48096 21.2347 5.19156C20.9458 4.90215 20.5541 4.73957 20.1456 4.73957ZM26.0498 7.85166C26.0248 6.78467 25.8254 5.72901 25.4594 4.72671C25.133 3.86912 24.6251 3.09257 23.9705 2.4505C23.3349 1.79134 22.558 1.28562 21.6986 0.971614C20.7009 0.59374 19.6461 0.38933 18.5797 0.367198C17.2191 0.290039 16.7827 0.290039 13.2915 0.290039C9.80036 0.290039 9.36396 0.290039 8.00343 0.367198C6.93701 0.38933 5.8822 0.59374 4.88446 0.971614C4.02665 1.2888 3.25045 1.79408 2.61262 2.4505C1.95472 3.0873 1.44997 3.86566 1.13657 4.72671C0.759417 5.72636 0.5554 6.7832 0.53331 7.85166C0.456299 9.21481 0.456299 9.65205 0.456299 13.1499C0.456299 16.6478 0.456299 17.0851 0.53331 18.4482C0.5554 19.5167 0.759417 20.5735 1.13657 21.5732C1.44997 22.4342 1.95472 23.2126 2.61262 23.8494C3.25045 24.5058 4.02665 25.0111 4.88446 25.3283C5.8822 25.7061 6.93701 25.9106 8.00343 25.9327C9.36396 26.0098 9.80036 26.0098 13.2915 26.0098C16.7827 26.0098 17.2191 26.0098 18.5797 25.9327C19.6461 25.9106 20.7009 25.7061 21.6986 25.3283C22.558 25.0143 23.3349 24.5085 23.9705 23.8494C24.628 23.2097 25.1364 22.4325 25.4594 21.5732C25.8254 20.5709 26.0248 19.5152 26.0498 18.4482C26.0498 17.0851 26.1268 16.6478 26.1268 13.1499C26.1268 9.65205 26.1268 9.21481 26.0498 7.85166ZM23.7394 18.2939C23.7301 19.1102 23.5825 19.919 23.303 20.6858C23.0981 21.2455 22.7689 21.7512 22.3404 22.1647C21.9241 22.5898 21.4204 22.9189 20.8643 23.1292C20.099 23.4093 19.2917 23.5571 18.477 23.5665C17.1935 23.6308 16.7186 23.6436 13.3429 23.6436C9.96722 23.6436 9.49232 23.6436 8.20879 23.5665C7.36281 23.5823 6.52043 23.4518 5.71875 23.1807C5.18709 22.9596 4.70651 22.6313 4.30687 22.2162C3.88086 21.803 3.55581 21.2969 3.35707 20.7373C3.0437 19.9595 2.8699 19.1323 2.84366 18.2939C2.84366 17.0079 2.76664 16.5321 2.76664 13.1499C2.76664 9.76779 2.76664 9.29197 2.84366 8.00598C2.84941 7.17145 3.00147 6.34441 3.29289 5.5626C3.51885 5.0198 3.86568 4.53594 4.30687 4.14801C4.69683 3.70585 5.17876 3.35468 5.71875 3.11922C6.50113 2.83636 7.32572 2.68851 8.15745 2.68198C9.44097 2.68198 9.91588 2.60482 13.2915 2.60482C16.6672 2.60482 17.1421 2.60482 18.4256 2.68198C19.2404 2.69134 20.0476 2.83919 20.813 3.11922C21.3963 3.3361 21.9198 3.68871 22.3404 4.14801C22.761 4.54304 23.0897 5.026 23.303 5.5626C23.5883 6.34568 23.736 7.17238 23.7394 8.00598C23.8036 9.29197 23.8165 9.76779 23.8165 13.1499C23.8165 16.5321 23.8036 17.0079 23.7394 18.2939ZM13.2915 6.55281C11.9898 6.55536 10.718 6.94443 9.63691 7.67088C8.55579 8.39732 7.71384 9.42854 7.21744 10.6342C6.72104 11.8399 6.59248 13.166 6.84799 14.4448C7.1035 15.7237 7.73162 16.898 8.65299 17.8193C9.57435 18.7407 10.7476 19.3677 12.0245 19.6212C13.3014 19.8748 14.6247 19.7434 15.8271 19.2437C17.0295 18.744 18.0571 17.8984 18.7801 16.8138C19.503 15.7292 19.8889 14.4542 19.8889 13.1499C19.8906 12.282 19.721 11.4224 19.3899 10.6203C19.0588 9.81834 18.5727 9.08983 17.9596 8.47672C17.3464 7.86361 16.6184 7.378 15.8173 7.04783C15.0162 6.71765 14.1578 6.54942 13.2915 6.55281ZM13.2915 17.4323C12.4462 17.4323 11.6198 17.1811 10.917 16.7106C10.2141 16.24 9.66626 15.5712 9.34276 14.7887C9.01926 14.0062 8.93462 13.1452 9.09954 12.3145C9.26446 11.4838 9.67153 10.7208 10.2693 10.1219C10.867 9.52297 11.6286 9.11512 12.4577 8.94988C13.2868 8.78464 14.1462 8.86945 14.9272 9.19357C15.7082 9.51769 16.3757 10.0666 16.8454 10.7708C17.315 11.475 17.5657 12.303 17.5657 13.1499C17.5657 13.7123 17.4551 14.2692 17.2403 14.7887C17.0255 15.3083 16.7107 15.7804 16.3138 16.178C15.9169 16.5757 15.4458 16.8911 14.9272 17.1063C14.4086 17.3215 13.8528 17.4323 13.2915 17.4323Z" fill="#212529"/>
</svg>
