<svg width="33" height="27" viewBox="0 0 33 27" fill="none" xmlns="http://www.w3.org/2000/svg">
<path d="M16.6383 11.6196L31.0535 1.06163C30.4739 0.566031 29.7701 0.29557 29.0457 0.290039H4.23089C3.50645 0.29557 2.80269 0.566031 2.22314 1.06163L16.6383 11.6196Z" fill="#212529"/>
<path d="M17.2475 14.2301L17.0558 14.333H16.9655C16.8617 14.3859 16.7514 14.4206 16.6384 14.4358C16.5448 14.4493 16.4501 14.4493 16.3564 14.4358H16.2662L16.0744 14.333L0.959962 3.19629C0.887749 3.50691 0.849858 3.82659 0.847168 4.14792V22.1518C0.847168 23.175 1.20368 24.1563 1.83827 24.8798C2.47286 25.6033 3.33356 26.0098 4.23101 26.0098H29.0458C29.9433 26.0098 30.804 25.6033 31.4386 24.8798C32.0732 24.1563 32.4297 23.175 32.4297 22.1518V4.14792C32.427 3.82659 32.3891 3.50691 32.3169 3.19629L17.2475 14.2301Z" fill="#212529"/>
</svg>
