<svg width="28" height="23" viewBox="0 0 28 23" fill="none" xmlns="http://www.w3.org/2000/svg">
<path d="M13.9431 10.0038L26.6714 0.681301C26.1597 0.243695 25.5383 0.00488385 24.8986 0H2.98764C2.34797 0.00488385 1.72657 0.243695 1.21484 0.681301L13.9431 10.0038Z" fill="#212529"/>
<path d="M14.4811 12.3088L14.3118 12.3996H14.2322C14.1405 12.4463 14.0431 12.4769 13.9433 12.4904C13.8607 12.5023 13.777 12.5023 13.6943 12.4904H13.6147L13.4454 12.3996L0.0995951 2.56616C0.0358325 2.84043 0.00237505 3.12271 0 3.40643V19.3035C0 20.2069 0.314791 21.0734 0.875123 21.7122C1.43545 22.3511 2.19543 22.71 2.98786 22.71H24.8988C25.6912 22.71 26.4512 22.3511 27.0115 21.7122C27.5719 21.0734 27.8867 20.2069 27.8867 19.3035V3.40643C27.8843 3.12271 27.8508 2.84043 27.7871 2.56616L14.4811 12.3088Z" fill="#212529"/>
</svg>
