<svg width="29" height="18" viewBox="0 0 29 18" fill="none" xmlns="http://www.w3.org/2000/svg">
<path d="M14.624 8.84001L14.454 8.92001H14.374C14.2819 8.96115 14.1841 8.98812 14.084 9.00001C14.001 9.01047 13.917 9.01047 13.834 9.00001H13.754L13.584 8.92001L0.183969 0.26001C0.119947 0.501549 0.0863538 0.750141 0.0839691 1.00001V15C0.0839691 15.7957 0.40004 16.5587 0.962649 17.1213C1.52526 17.6839 2.28832 18 3.08397 18H25.084C25.8796 18 26.6427 17.6839 27.2053 17.1213C27.7679 16.5587 28.084 15.7957 28.084 15V1.00001C28.0816 0.750141 28.048 0.501549 27.984 0.26001L14.624 8.84001Z" fill="#212529"/>
</svg>
