<svg width="58" height="64" viewBox="0 0 58 64" fill="none" xmlns="http://www.w3.org/2000/svg">
  <path
    d="M28.6383 30.6196L43.0535 20.0616C42.4739 19.566 41.7701 19.2956 41.0457 19.29H16.2309C15.5065 19.2956 14.8027 19.566 14.2231 20.0616L28.6383 30.6196Z"
    fill="#212529" />
  <path
    d="M29.2475 33.2301L29.0558 33.333H28.9655C28.8617 33.3859 28.7514 33.4206 28.6384 33.4358C28.5448 33.4493 28.4501 33.4493 28.3564 33.4358H28.2662L28.0744 33.333L12.96 22.1963C12.8877 22.5069 12.8499 22.8266 12.8472 23.1479V41.1518C12.8472 42.175 13.2037 43.1563 13.8383 43.8798C14.4729 44.6033 15.3336 45.0098 16.231 45.0098H41.0458C41.9433 45.0098 42.804 44.6033 43.4386 43.8798C44.0732 43.1563 44.4297 42.175 44.4297 41.1518V23.1479C44.427 22.8266 44.3891 22.5069 44.3169 22.1963L29.2475 33.2301Z"
    fill="#212529" />
</svg>
