<svg width="21" height="20" viewBox="0 0 21 20" fill="none" xmlns="http://www.w3.org/2000/svg">
<path d="M15.382 3.46C15.1446 3.46 14.9126 3.53038 14.7153 3.66224C14.518 3.79409 14.3641 3.98151 14.2733 4.20078C14.1825 4.42005 14.1587 4.66133 14.205 4.89411C14.2513 5.12688 14.3656 5.3407 14.5335 5.50853C14.7013 5.67635 14.9151 5.79064 15.1479 5.83694C15.3806 5.88324 15.6219 5.85948 15.8412 5.76865C16.0605 5.67783 16.2479 5.52402 16.3797 5.32668C16.5116 5.12934 16.582 4.89734 16.582 4.66C16.582 4.34174 16.4556 4.03652 16.2305 3.81147C16.0055 3.58643 15.7002 3.46 15.382 3.46ZM19.982 5.88C19.9625 5.0503 19.8071 4.2294 19.522 3.45C19.2677 2.78313 18.872 2.17928 18.362 1.68C17.8668 1.16743 17.2615 0.774176 16.592 0.53C15.8146 0.236161 14.9928 0.07721 14.162 0.0599999C13.102 -5.58793e-08 12.762 0 10.042 0C7.32198 0 6.98198 -5.58793e-08 5.92198 0.0599999C5.09113 0.07721 4.26932 0.236161 3.49198 0.53C2.82365 0.776648 2.21891 1.16956 1.72198 1.68C1.2094 2.17518 0.816154 2.78044 0.571978 3.45C0.278139 4.22734 0.119188 5.04915 0.101978 5.88C0.0419778 6.94 0.0419779 7.28 0.0419779 10C0.0419779 12.72 0.0419778 13.06 0.101978 14.12C0.119188 14.9508 0.278139 15.7727 0.571978 16.55C0.816154 17.2196 1.2094 17.8248 1.72198 18.32C2.21891 18.8304 2.82365 19.2233 3.49198 19.47C4.26932 19.7638 5.09113 19.9228 5.92198 19.94C6.98198 20 7.32198 20 10.042 20C12.762 20 13.102 20 14.162 19.94C14.9928 19.9228 15.8146 19.7638 16.592 19.47C17.2615 19.2258 17.8668 18.8326 18.362 18.32C18.8742 17.8226 19.2703 17.2182 19.522 16.55C19.8071 15.7706 19.9625 14.9497 19.982 14.12C19.982 13.06 20.042 12.72 20.042 10C20.042 7.28 20.042 6.94 19.982 5.88ZM18.182 14C18.1747 14.6348 18.0597 15.2637 17.842 15.86C17.6823 16.2952 17.4259 16.6884 17.092 17.01C16.7676 17.3405 16.3752 17.5964 15.942 17.76C15.3457 17.9778 14.7168 18.0927 14.082 18.1C13.082 18.15 12.712 18.16 10.082 18.16C7.45198 18.16 7.08198 18.16 6.08198 18.1C5.42287 18.1123 4.76657 18.0108 4.14198 17.8C3.72776 17.6281 3.35333 17.3728 3.04198 17.05C2.71007 16.7287 2.45682 16.3352 2.30198 15.9C2.05783 15.2951 1.92242 14.6519 1.90198 14C1.90198 13 1.84198 12.63 1.84198 10C1.84198 7.37 1.84198 7 1.90198 6C1.90646 5.35105 2.02493 4.70794 2.25198 4.1C2.42803 3.67791 2.69824 3.30166 3.04198 3C3.34579 2.65617 3.72127 2.3831 4.14198 2.2C4.75153 1.98004 5.39398 1.86508 6.04198 1.86C7.04198 1.86 7.41198 1.8 10.042 1.8C12.672 1.8 13.042 1.8 14.042 1.86C14.6767 1.86728 15.3057 1.98225 15.902 2.2C16.3564 2.36865 16.7643 2.64285 17.092 3C17.4197 3.30718 17.6757 3.68273 17.842 4.1C18.0642 4.70893 18.1793 5.35178 18.182 6C18.232 7 18.242 7.37 18.242 10C18.242 12.63 18.232 13 18.182 14ZM10.042 4.87C9.02779 4.87198 8.03694 5.17453 7.19463 5.73942C6.35232 6.30431 5.69636 7.1062 5.30961 8.04375C4.92287 8.98131 4.8227 10.0125 5.02177 11.0069C5.22084 12.0014 5.71021 12.9145 6.42805 13.631C7.14589 14.3474 8.05999 14.835 9.05484 15.0321C10.0497 15.2293 11.0806 15.1271 12.0174 14.7385C12.9542 14.35 13.7549 13.6924 14.3181 12.849C14.8814 12.0056 15.182 11.0142 15.182 10C15.1833 9.3251 15.0512 8.65661 14.7932 8.03296C14.5353 7.40931 14.1565 6.84281 13.6788 6.36605C13.2012 5.88929 12.6339 5.51168 12.0098 5.25493C11.3856 4.99818 10.7169 4.86736 10.042 4.87ZM10.042 13.33C9.38337 13.33 8.73954 13.1347 8.19193 12.7688C7.64431 12.4029 7.2175 11.8828 6.96546 11.2743C6.71342 10.6659 6.64747 9.99631 6.77596 9.35035C6.90445 8.70439 7.2216 8.11104 7.68731 7.64533C8.15302 7.17962 8.74637 6.86247 9.39233 6.73398C10.0383 6.6055 10.7078 6.67144 11.3163 6.92348C11.9248 7.17552 12.4449 7.60233 12.8108 8.14995C13.1767 8.69757 13.372 9.34139 13.372 10C13.372 10.4373 13.2858 10.8703 13.1185 11.2743C12.9511 11.6783 12.7059 12.0454 12.3966 12.3547C12.0874 12.6639 11.7203 12.9092 11.3163 13.0765C10.9123 13.2439 10.4793 13.33 10.042 13.33Z" fill="#212529"/>
</svg>
