<svg xmlns="http://www.w3.org/2000/svg" width="256" height="168" fill="none">
  <path fill="#CE0101"
    d="M240.273 381.482c9.22-33.719 20.315-67.605 12.946-106.078-7.343-38.335-31.379-75.269-54.566-111.218-23.056-35.745-46.441-72.953-80.99-98.946C83.305 39.39 43.253 29.062 4.604 18.191c-37.93-10.67-76.46-20.648-111.506-16.118C-142.069 6.62-171.471 22.99-196 44.12c-24.281 20.918-40.133 49.11-52.263 79.734-12.57 31.736-23.001 65.039-20.012 102.739 3.124 39.401 16.495 80.162 37.582 118.848 21.962 40.29 47.329 84.017 86.809 109.357 39.321 25.236 82.91 16.427 125.234 26.735 39.458 9.611 79.154 33.195 116.907 32.241 39.007-.986 74.754-14.118 100.095-37.724 24.972-23.262 32.477-60.031 41.921-94.568Z" />
</svg>
